<svg width="303" height="345" viewBox="0 0 303 345" fill="none" xmlns="http://www.w3.org/2000/svg">
<g clip-path="url(#clip0_604_414)">
<g clip-path="url(#clip1_604_414)">
<path d="M158.685 27.78H257.434C257.434 27.78 254.866 22.3426 246.246 21.755C246.246 21.755 243.531 12.3498 235.003 10.145C226.474 7.94104 221.045 13.5251 221.045 13.5251C221.045 13.5251 216.644 -0.288799 205.052 0.00460868C193.46 0.298865 191.26 10.4384 191.26 10.4384C191.26 10.4384 184.51 9.40977 182.75 15.2881C182.75 15.2881 175.707 12.4956 171.305 16.0233C166.903 19.5502 166.756 22.4893 166.756 22.4893C166.756 22.4893 161.326 22.1959 158.685 27.78Z" fill="white" stroke="#9ABAE3" stroke-width="2.5" stroke-miterlimit="10" stroke-linecap="round" stroke-linejoin="round"/>
<path d="M185.411 70.0443C182.746 65.1895 174.144 53.9119 155.983 59.4324C153.877 54.754 143.153 42.6005 128.691 51.5935C124.993 45.7677 120.294 40.4287 106.22 44.0531C103.079 35.7122 95.1731 29.7812 85.8911 29.7812C74.6067 29.7812 65.3256 38.5301 64.2096 49.7423C64.1715 49.7423 64.1351 49.7381 64.097 49.7381C62.9625 49.7381 61.8576 49.8212 60.7798 49.9603C58.2144 44.6051 53.3655 40.985 47.7945 40.985C39.7478 40.985 33.2056 48.5305 32.8948 57.9705C32.0473 57.8602 31.1803 57.7907 30.2913 57.7907C21.8568 57.7907 15.0183 62.9635 15.0183 69.3447C15.0183 69.5813 15.0471 69.8119 15.0649 70.0451L185.411 70.0443Z" fill="white" stroke="#9ABAE3" stroke-width="2.5" stroke-miterlimit="10" stroke-linecap="round" stroke-linejoin="round"/>
<path d="M61.1886 267.783H28.1169" stroke="#263238" stroke-width="2.5" stroke-miterlimit="10" stroke-linecap="round" stroke-linejoin="round"/>
<path d="M8.29733 259.175H0" stroke="#263238" stroke-width="2.5" stroke-miterlimit="10" stroke-linecap="round" stroke-linejoin="round"/>
<path d="M50.1261 244.785H41.8296" stroke="#263238" stroke-width="2.5" stroke-miterlimit="10" stroke-linecap="round" stroke-linejoin="round"/>
<path d="M45.9782 259.175H16.3635" stroke="#263238" stroke-width="2.5" stroke-miterlimit="10" stroke-linecap="round" stroke-linejoin="round"/>
<path d="M99.4614 167.325C96.7995 163.744 90.8627 169.993 87.487 182.391C85.1891 190.831 86.7504 200.336 89.2015 200.34C94.8005 200.351 102.714 171.702 99.4614 167.325Z" fill="white" stroke="#263238" stroke-width="2.5" stroke-miterlimit="10" stroke-linecap="round" stroke-linejoin="round"/>
<path d="M163.302 289.899C163.302 319.293 146.64 343.097 126.094 343.097H106.887V236.702H126.094C146.64 236.702 163.302 260.523 163.302 289.899Z" fill="#263238"/>
<path d="M156.704 320.15C159.133 312.877 160.481 304.742 160.481 296.147C160.481 265.257 142.97 240.219 121.364 240.219H106.892V236.698H126.094C146.645 236.698 163.304 260.529 163.304 289.894C163.304 301.134 160.874 311.568 156.704 320.15Z" fill="#263238"/>
<path d="M163.302 289.899C163.302 319.293 146.64 343.097 126.094 343.097H106.887V236.702H126.094C146.64 236.702 163.302 260.523 163.302 289.899Z" stroke="#263238" stroke-width="2.5" stroke-miterlimit="10" stroke-linecap="round" stroke-linejoin="round"/>
<path d="M106.891 343.105C127.441 343.105 144.1 319.285 144.1 289.903C144.1 260.52 127.441 236.701 106.891 236.701C86.3414 236.701 69.6826 260.52 69.6826 289.903C69.6826 319.285 86.3414 343.105 106.891 343.105Z" fill="#263238"/>
<path d="M144.106 289.907C144.106 309.322 136.832 326.31 125.959 335.584C134.143 325.831 139.352 311.161 139.352 294.729C139.352 265.345 122.686 241.524 102.135 241.524C95.1715 241.524 88.6505 244.261 83.0769 249.021C89.5336 241.323 97.8343 236.702 106.889 236.702C127.439 236.702 144.106 260.522 144.106 289.907Z" fill="white"/>
<path d="M106.891 311.386C115.189 311.386 121.916 301.768 121.916 289.903C121.916 278.038 115.189 268.419 106.891 268.419C98.5931 268.419 91.8662 278.038 91.8662 289.903C91.8662 301.768 98.5931 311.386 106.891 311.386Z" fill="#9ABAE3"/>
<path d="M106.891 343.105C127.441 343.105 144.1 319.285 144.1 289.903C144.1 260.52 127.441 236.701 106.891 236.701C86.3414 236.701 69.6826 260.52 69.6826 289.903C69.6826 319.285 86.3414 343.105 106.891 343.105Z" stroke="#263238" stroke-width="2.5" stroke-miterlimit="10" stroke-linecap="round" stroke-linejoin="round"/>
<path d="M317.885 343.105C338.435 343.105 355.094 319.285 355.094 289.903C355.094 260.52 338.435 236.701 317.885 236.701C297.336 236.701 280.677 260.52 280.677 289.903C280.677 319.285 297.336 343.105 317.885 343.105Z" fill="#263238"/>
<path d="M355.1 289.907C355.1 309.322 347.825 326.31 336.952 335.584C345.136 325.831 350.346 311.161 350.346 294.729C350.346 265.345 333.679 241.524 313.128 241.524C306.165 241.524 299.644 244.261 294.071 249.021C300.528 241.323 308.829 236.702 317.883 236.702C338.433 236.702 355.1 260.522 355.1 289.907Z" fill="white"/>
<path d="M317.886 311.386C326.184 311.386 332.91 301.768 332.91 289.903C332.91 278.038 326.184 268.419 317.886 268.419C309.587 268.419 302.861 278.038 302.861 289.903C302.861 301.768 309.587 311.386 317.886 311.386Z" fill="#9ABAE3"/>
<path d="M317.885 343.105C338.435 343.105 355.094 319.285 355.094 289.903C355.094 260.52 338.435 236.701 317.885 236.701C297.336 236.701 280.677 260.52 280.677 289.903C280.677 319.285 297.336 343.105 317.885 343.105Z" stroke="#263238" stroke-width="2.5" stroke-miterlimit="10" stroke-linecap="round" stroke-linejoin="round"/>
<path d="M479.751 162.165C479.751 162.165 521.528 173.154 528.28 179.494C535.032 185.834 543.049 223.027 543.049 223.027C543.049 223.027 566.259 251.767 566.259 261.066C566.259 270.364 566.259 305.867 566.259 305.867H371.3C371.3 305.867 366.473 234.016 320.476 234.016C274.479 234.016 274.665 305.867 274.665 305.867H147.646C147.646 305.867 143.702 228.21 101.649 234.016C65.7194 238.977 69.6826 297.776 69.6826 297.776H60.2948C60.2948 297.776 56.4966 242.047 86.8801 216.688C86.8801 216.688 90.2558 174.845 106.713 156.249C106.713 156.249 127.391 104.685 138.363 96.2323C149.334 87.7795 197.863 80.5944 234.998 80.5944C272.132 80.5944 376.786 82.7076 399.995 91.5836C423.205 100.46 479.751 162.165 479.751 162.165Z" fill="#9ABAE3"/>
<path d="M566.256 261.067C566.256 270.37 566.256 305.869 566.256 305.869H554.911V266.379C554.911 256.923 531.295 227.678 531.295 227.678C531.295 227.678 523.136 189.841 516.27 183.397C509.406 176.941 466.907 165.769 466.907 165.769C466.907 165.769 409.384 102.995 385.769 93.9588C362.153 84.9352 255.698 82.7872 217.92 82.7872C205.611 82.7872 192.072 83.5623 179.026 84.9098C196.69 82.2538 217.159 80.5884 235.001 80.5884C272.132 80.5884 376.785 82.7109 399.993 91.5827C423.203 100.454 479.749 162.16 479.749 162.16C479.749 162.16 521.523 173.154 528.274 179.497C535.026 185.839 543.045 223.028 543.045 223.028C543.045 223.028 566.256 251.763 566.256 261.067Z" fill="white"/>
<path d="M479.751 162.165C479.751 162.165 521.528 173.154 528.28 179.494C535.032 185.834 543.049 223.027 543.049 223.027C543.049 223.027 566.259 251.767 566.259 261.066C566.259 270.364 566.259 305.867 566.259 305.867H371.3C371.3 305.867 366.473 234.016 320.476 234.016C274.479 234.016 274.665 305.867 274.665 305.867H147.646C147.646 305.867 143.702 228.21 101.649 234.016C65.7194 238.977 69.6826 296.488 69.6826 296.488L60.2948 297.776C60.2948 297.776 56.4966 242.047 86.8801 216.688C86.8801 216.688 90.2558 174.845 106.713 156.249C106.713 156.249 127.391 104.685 138.363 96.2323C149.334 87.7795 197.863 80.5944 234.998 80.5944C272.132 80.5944 376.786 82.7076 399.995 91.5836C423.205 100.46 479.751 162.165 479.751 162.165Z" stroke="#263238" stroke-width="2.5" stroke-miterlimit="10" stroke-linecap="round" stroke-linejoin="round"/>
<path d="M274.766 311.386H150.427C148.269 311.386 146.519 309.634 146.519 307.472V299.716C146.519 297.554 148.269 295.802 150.427 295.802H274.766C276.924 295.802 278.673 297.554 278.673 299.716V307.472C278.674 309.634 276.925 311.386 274.766 311.386Z" fill="#9ABAE3" stroke="#263238" stroke-width="2.5" stroke-miterlimit="10" stroke-linecap="round" stroke-linejoin="round"/>
<path d="M65.7751 311.386H61.8771C59.7189 311.386 57.9697 309.634 57.9697 307.472V299.716C57.9697 297.554 59.7189 295.802 61.8771 295.802H65.7751C67.9333 295.802 69.6825 297.554 69.6825 299.716V307.472C69.6825 309.634 67.9333 311.386 65.7751 311.386Z" fill="#9ABAE3" stroke="#263238" stroke-width="2.5" stroke-miterlimit="10" stroke-linecap="round" stroke-linejoin="round"/>
<path d="M88.5413 219.936C88.9629 222.684 93.1827 230.08 93.1827 230.08" stroke="#263238" stroke-width="2.5" stroke-miterlimit="10" stroke-linecap="round" stroke-linejoin="round"/>
<path d="M272.317 279.953C272.317 279.953 275.06 219.937 317.048 219.937C363.045 219.937 372.75 278.424 372.75 278.424" stroke="#263238" stroke-width="2.5" stroke-miterlimit="10" stroke-linecap="round" stroke-linejoin="round"/>
<path d="M108.973 208.102C108.973 208.102 157.08 215.949 282.233 221.204" stroke="#263238" stroke-width="2.5" stroke-miterlimit="10" stroke-linecap="round" stroke-linejoin="round"/>
<path d="M317.886 161.962H472.564C472.564 161.962 412.84 100.818 397.367 96.0287C381.894 91.2384 288.354 91.8023 282.235 93.2108C276.116 94.6194 274.147 98.5643 275.272 102.228C276.396 105.89 313.801 161.962 317.886 161.962Z" fill="white" stroke="#263238" stroke-width="2.5" stroke-miterlimit="10" stroke-linecap="round" stroke-linejoin="round"/>
<path d="M352.128 161.964H317.889C315.738 161.964 304.384 146.471 293.928 131.241H333.865C337.413 131.241 340.596 133.395 341.926 136.685L352.128 161.964Z" fill="#263238"/>
<path d="M322.088 127.417H291.32C287.959 122.464 284.784 117.673 282.168 113.62C281.491 112.585 280.847 111.593 280.254 110.66L280.246 110.652C280.017 110.287 279.789 109.922 279.569 109.575H311.488C313.545 109.575 315.4 110.821 316.17 112.729L322.088 127.417Z" fill="#263238"/>
<path d="M280.246 110.652L280.254 110.66C280.932 111.194 281.474 111.898 281.804 112.729L282.168 113.62" stroke="#263238" stroke-width="2.5" stroke-miterlimit="10" stroke-linecap="round" stroke-linejoin="round"/>
<path d="M188.937 96.2458C177.758 130.123 172.085 158.486 172.085 158.486C153.558 157.698 126.678 156.986 126.31 156.605C125.181 155.486 137.008 127.868 142.35 119.137C147.693 110.405 150.917 103.564 163.303 99.9033C166.196 99.0391 184.662 96.5384 188.976 96.1322C188.976 96.1322 188.947 96.217 188.937 96.2458Z" fill="white" stroke="#263238" stroke-width="2.5" stroke-miterlimit="10" stroke-linecap="round" stroke-linejoin="round"/>
<path d="M294.072 161.968C272.017 161.968 223.047 160.507 186.234 159.058C186.348 158.232 190.79 124.957 200.789 95.5089C212.502 95.2163 224.938 95.8142 231.942 96.4493C244.327 97.5806 253.603 100.542 262.334 108.714C271.053 116.874 294.072 161.968 294.072 161.968Z" fill="white" stroke="#263238" stroke-width="2.5" stroke-miterlimit="10" stroke-linecap="round" stroke-linejoin="round"/>
<path d="M294.072 161.964H292.963C287.002 161.947 279.264 161.845 270.425 161.659C245.863 161.159 212.868 160.107 186.232 159.056C186.351 158.233 190.787 124.957 200.786 95.5064C212.504 95.2181 224.942 95.8117 231.944 96.4477C244.33 97.584 253.601 100.544 262.339 108.718C265.091 111.296 269.273 117.571 273.71 124.94C274.201 125.746 274.692 126.577 275.191 127.417C275.937 128.672 276.682 129.952 277.418 131.241C277.528 131.419 277.63 131.606 277.731 131.784C281.99 139.187 286.147 146.887 289.204 152.653C292.15 158.199 294.072 161.964 294.072 161.964Z" fill="white" stroke="#263238" stroke-width="2.5" stroke-miterlimit="10" stroke-linecap="round" stroke-linejoin="round"/>
<path d="M294.072 161.964H292.963C287.002 161.947 279.264 161.845 270.425 161.659L262.974 143.206C260.671 137.491 264.871 131.241 271.034 131.241H277.418C277.528 131.419 277.63 131.606 277.731 131.784C281.99 139.187 286.147 146.887 289.204 152.653C292.15 158.199 294.072 161.964 294.072 161.964Z" fill="#263238"/>
<path d="M292.963 161.964L289.204 152.653" stroke="#263238" stroke-width="2.5" stroke-miterlimit="10" stroke-linecap="round" stroke-linejoin="round"/>
<path d="M277.732 131.784C276.783 131.428 275.759 131.241 274.709 131.241" stroke="#263238" stroke-width="2.5" stroke-miterlimit="10" stroke-linecap="round" stroke-linejoin="round"/>
<path d="M287.509 169.218C287.509 169.218 287.298 205.003 287.509 219.936" stroke="#263238" stroke-width="2.5" stroke-miterlimit="10" stroke-linecap="round" stroke-linejoin="round"/>
<path d="M288.817 164.66L277.718 141.158C276.76 138.96 274.592 137.54 272.198 137.54H252.948C249.621 137.54 246.924 140.241 246.924 143.574V156.414H275.848L279.907 164.661" fill="#9ABAE3"/>
<path d="M288.817 164.66L277.718 141.158C276.76 138.96 274.592 137.54 272.198 137.54H252.948C249.621 137.54 246.924 140.241 246.924 143.574V156.414H275.848L279.907 164.661" stroke="#263238" stroke-width="2.5" stroke-miterlimit="10" stroke-linecap="round" stroke-linejoin="round"/>
<path d="M132.76 166.403C128.476 167.417 128.962 175.448 130.952 177.056C132.943 178.664 150.502 179.029 151.914 177.806C153.326 176.582 155.265 169.601 153.486 167.982C151.706 166.361 136.515 165.513 132.76 166.403Z" stroke="#263238" stroke-width="2.5" stroke-miterlimit="10" stroke-linecap="round" stroke-linejoin="round"/>
<path d="M129.847 169.576L154.194 170.729" stroke="#263238" stroke-width="2.5" stroke-miterlimit="10" stroke-linecap="round" stroke-linejoin="round"/>
<path d="M129.528 173.494L153.458 174.72" stroke="#263238" stroke-width="2.5" stroke-miterlimit="10" stroke-linecap="round" stroke-linejoin="round"/>
<path d="M189.624 169.326C185.322 170.261 185.661 178.3 187.621 179.944C189.582 181.589 207.132 182.276 208.565 181.079C210 179.882 212.066 172.937 210.316 171.285C208.567 169.633 193.394 168.506 189.624 169.326Z" stroke="#263238" stroke-width="2.5" stroke-miterlimit="10" stroke-linecap="round" stroke-linejoin="round"/>
<path d="M186.654 172.445L210.975 174.046" stroke="#263238" stroke-width="2.5" stroke-miterlimit="10" stroke-linecap="round" stroke-linejoin="round"/>
<path d="M186.262 176.358L210.167 178.023" stroke="#263238" stroke-width="2.5" stroke-miterlimit="10" stroke-linecap="round" stroke-linejoin="round"/>
<path d="M188.975 151.882L226.314 114.485" stroke="#263238" stroke-width="2.5" stroke-miterlimit="10" stroke-linecap="round" stroke-linejoin="round"/>
<path d="M226.396 127.309L240.153 113.53" stroke="#263238" stroke-width="2.5" stroke-miterlimit="10" stroke-linecap="round" stroke-linejoin="round"/>
<path d="M131.365 143.136L145.122 129.358" stroke="#263238" stroke-width="2.5" stroke-miterlimit="10" stroke-linecap="round" stroke-linejoin="round"/>
<path d="M173.04 170.729C169.149 186.571 169.149 253.819 171.095 274.81" stroke="#263238" stroke-width="2.5" stroke-miterlimit="10" stroke-linecap="round" stroke-linejoin="round"/>
<path d="M14.1226 344.589H575.546" stroke="#263238" stroke-width="2.5" stroke-miterlimit="10" stroke-linecap="round" stroke-linejoin="round"/>
</g>
</g>
<defs>
<clipPath id="clip0_604_414">
<rect width="303" height="345" fill="white"/>
</clipPath>
<clipPath id="clip1_604_414">
<rect width="575.55" height="344.59" fill="white"/>
</clipPath>
</defs>
</svg>
