<svg width="579" height="348" viewBox="0 0 579 348" fill="none" xmlns="http://www.w3.org/2000/svg">
<path d="M437.092 87.3761H562.653C562.653 87.3761 559.387 80.4624 548.426 79.7144C548.426 79.7144 544.974 67.7551 534.131 64.9525C523.287 62.1498 516.384 69.2501 516.384 69.2501C516.384 69.2501 510.787 51.6847 496.048 52.0586C481.309 52.4326 478.51 65.3256 478.51 65.3256C478.51 65.3256 469.928 64.0171 467.689 71.4922C467.689 71.4922 458.734 67.9417 453.136 72.4267C447.539 76.9118 447.353 80.6489 447.353 80.6489C447.353 80.6489 440.451 80.2758 437.092 87.3761Z" fill="white" stroke="#9ABAE3" stroke-width="2.5" stroke-miterlimit="10" stroke-linecap="round" stroke-linejoin="round"/>
<path d="M160.685 29.78H259.434C259.434 29.78 256.865 24.3426 248.246 23.755C248.246 23.755 245.531 14.3498 237.003 12.145C228.474 9.94104 223.045 15.5251 223.045 15.5251C223.045 15.5251 218.644 1.7112 207.052 2.00461C195.46 2.29886 193.26 12.4384 193.26 12.4384C193.26 12.4384 186.51 11.4098 184.75 17.2881C184.75 17.2881 177.707 14.4956 173.305 18.0233C168.903 21.5502 168.756 24.4893 168.756 24.4893C168.756 24.4893 163.326 24.1959 160.685 29.78Z" fill="white" stroke="#9ABAE3" stroke-width="2.5" stroke-miterlimit="10" stroke-linecap="round" stroke-linejoin="round"/>
<path d="M187.411 72.0443C184.746 67.1895 176.144 55.9119 157.983 61.4324C155.877 56.754 145.153 44.6005 130.691 53.5935C126.993 47.7677 122.294 42.4287 108.22 46.0531C105.079 37.7122 97.1731 31.7812 87.8911 31.7812C76.6067 31.7812 67.3256 40.5301 66.2096 51.7423C66.1715 51.7423 66.1351 51.7381 66.097 51.7381C64.9625 51.7381 63.8576 51.8212 62.7798 51.9603C60.2144 46.6051 55.3655 42.985 49.7945 42.985C41.7478 42.985 35.2056 50.5305 34.8948 59.9705C34.0473 59.8602 33.1803 59.7907 32.2913 59.7907C23.8568 59.7907 17.0183 64.9635 17.0183 71.3447C17.0183 71.5813 17.0471 71.8119 17.0649 72.0451L187.411 72.0443Z" fill="white" stroke="#9ABAE3" stroke-width="2.5" stroke-miterlimit="10" stroke-linecap="round" stroke-linejoin="round"/>
<path d="M63.1886 269.783H30.1169" stroke="#263238" stroke-width="2.5" stroke-miterlimit="10" stroke-linecap="round" stroke-linejoin="round"/>
<path d="M10.2973 261.175H2" stroke="#263238" stroke-width="2.5" stroke-miterlimit="10" stroke-linecap="round" stroke-linejoin="round"/>
<path d="M52.1261 246.785H43.8296" stroke="#263238" stroke-width="2.5" stroke-miterlimit="10" stroke-linecap="round" stroke-linejoin="round"/>
<path d="M47.9782 261.175H18.3635" stroke="#263238" stroke-width="2.5" stroke-miterlimit="10" stroke-linecap="round" stroke-linejoin="round"/>
<path d="M439.001 166.66L450.1 143.158C451.059 140.96 453.226 139.54 455.62 139.54H474.87C478.197 139.54 480.894 142.241 480.894 145.574V158.414H451.97L447.912 166.661" fill="#9ABAE3"/>
<path d="M439.001 166.66L450.1 143.158C451.059 140.96 453.226 139.54 455.62 139.54H474.87C478.197 139.54 480.894 142.241 480.894 145.574V158.414H451.97L447.912 166.661" stroke="#263238" stroke-width="2.5" stroke-miterlimit="10" stroke-linecap="round" stroke-linejoin="round"/>
<path d="M101.462 169.325C98.7996 165.744 92.8628 171.993 89.4871 184.391C87.1893 192.831 88.7505 202.336 91.2016 202.34C96.8006 202.351 104.714 173.702 101.462 169.325Z" fill="white" stroke="#263238" stroke-width="2.5" stroke-miterlimit="10" stroke-linecap="round" stroke-linejoin="round"/>
<path d="M165.302 291.899C165.302 321.293 148.639 345.097 128.093 345.097H108.887V238.702H128.093C148.639 238.702 165.302 262.523 165.302 291.899Z" fill="#263238"/>
<path d="M158.704 322.15C161.133 314.877 162.481 306.742 162.481 298.147C162.481 267.257 144.97 242.219 123.364 242.219H108.892V238.698H128.094C148.645 238.698 165.304 262.529 165.304 291.894C165.304 303.134 162.874 313.568 158.704 322.15Z" fill="#263238"/>
<path d="M165.302 291.899C165.302 321.293 148.639 345.097 128.093 345.097H108.887V238.702H128.093C148.639 238.702 165.302 262.523 165.302 291.899Z" stroke="#263238" stroke-width="2.5" stroke-miterlimit="10" stroke-linecap="round" stroke-linejoin="round"/>
<path d="M108.891 345.105C129.441 345.105 146.099 321.285 146.099 291.903C146.099 262.52 129.441 238.701 108.891 238.701C88.3413 238.701 71.6825 262.52 71.6825 291.903C71.6825 321.285 88.3413 345.105 108.891 345.105Z" fill="#263238"/>
<path d="M146.106 291.907C146.106 311.322 138.832 328.31 127.959 337.585C136.143 327.831 141.352 313.161 141.352 296.73C141.352 267.345 124.686 243.524 104.134 243.524C97.1714 243.524 90.6504 246.261 85.0768 251.022C91.5335 243.323 99.8342 238.702 108.888 238.702C129.439 238.702 146.106 262.522 146.106 291.907Z" fill="white"/>
<path d="M108.891 313.386C117.189 313.386 123.916 303.768 123.916 291.903C123.916 280.038 117.189 270.42 108.891 270.42C100.593 270.42 93.866 280.038 93.866 291.903C93.866 303.768 100.593 313.386 108.891 313.386Z" fill="#9ABAE3"/>
<path d="M108.891 345.105C129.441 345.105 146.099 321.285 146.099 291.903C146.099 262.52 129.441 238.701 108.891 238.701C88.3413 238.701 71.6825 262.52 71.6825 291.903C71.6825 321.285 88.3413 345.105 108.891 345.105Z" stroke="#263238" stroke-width="2.5" stroke-miterlimit="10" stroke-linecap="round" stroke-linejoin="round"/>
<path d="M376.295 291.899C376.295 321.293 359.633 345.097 339.087 345.097H319.88V238.702H339.087C359.634 238.702 376.295 262.523 376.295 291.899Z" fill="#263238"/>
<path d="M369.697 322.15C372.126 314.877 373.474 306.742 373.474 298.147C373.474 267.257 355.964 242.219 334.357 242.219H319.886V238.698H339.089C359.639 238.698 376.298 262.529 376.298 291.894C376.298 303.134 373.869 313.568 369.697 322.15Z" fill="#263238"/>
<path d="M376.295 291.899C376.295 321.293 359.633 345.097 339.087 345.097H319.88V238.702H339.087C359.634 238.702 376.295 262.523 376.295 291.899Z" stroke="#263238" stroke-width="2.5" stroke-miterlimit="10" stroke-linecap="round" stroke-linejoin="round"/>
<path d="M319.885 345.105C340.435 345.105 357.094 321.285 357.094 291.903C357.094 262.52 340.435 238.701 319.885 238.701C299.336 238.701 282.677 262.52 282.677 291.903C282.677 321.285 299.336 345.105 319.885 345.105Z" fill="#263238"/>
<path d="M357.1 291.907C357.1 311.322 349.825 328.31 338.952 337.585C347.136 327.831 352.346 313.161 352.346 296.73C352.346 267.345 335.679 243.524 315.128 243.524C308.165 243.524 301.644 246.261 296.071 251.022C302.528 243.323 310.829 238.702 319.883 238.702C340.433 238.702 357.1 262.522 357.1 291.907Z" fill="white"/>
<path d="M319.885 313.386C328.183 313.386 334.91 303.768 334.91 291.903C334.91 280.038 328.183 270.42 319.885 270.42C311.587 270.42 304.86 280.038 304.86 291.903C304.86 303.768 311.587 313.386 319.885 313.386Z" fill="#9ABAE3"/>
<path d="M319.885 345.105C340.435 345.105 357.094 321.285 357.094 291.903C357.094 262.52 340.435 238.701 319.885 238.701C299.336 238.701 282.677 262.52 282.677 291.903C282.677 321.285 299.336 345.105 319.885 345.105Z" stroke="#263238" stroke-width="2.5" stroke-miterlimit="10" stroke-linecap="round" stroke-linejoin="round"/>
<path d="M560.282 291.899C560.282 321.293 543.62 345.097 523.074 345.097H503.867V238.702H523.074C543.62 238.702 560.282 262.523 560.282 291.899Z" fill="#263238"/>
<path d="M553.685 322.15C556.114 314.877 557.462 306.742 557.462 298.147C557.462 267.257 539.951 242.219 518.345 242.219H503.873V238.698H523.075C543.626 238.698 560.285 262.529 560.285 291.894C560.285 303.134 557.856 313.568 553.685 322.15Z" fill="white"/>
<path d="M560.282 291.899C560.282 321.293 543.62 345.097 523.074 345.097H503.867V238.702H523.074C543.62 238.702 560.282 262.523 560.282 291.899Z" stroke="#263238" stroke-width="2.5" stroke-miterlimit="10" stroke-linecap="round" stroke-linejoin="round"/>
<path d="M503.872 345.105C524.422 345.105 541.08 321.285 541.08 291.903C541.08 262.52 524.422 238.701 503.872 238.701C483.322 238.701 466.664 262.52 466.664 291.903C466.664 321.285 483.322 345.105 503.872 345.105Z" fill="#263238"/>
<path d="M541.086 291.907C541.086 311.322 533.812 328.31 522.938 337.585C531.122 327.831 536.332 313.161 536.332 296.73C536.332 267.345 519.665 243.524 499.114 243.524C492.151 243.524 485.63 246.261 480.056 251.022C486.513 243.323 494.814 238.702 503.868 238.702C524.42 238.702 541.086 262.522 541.086 291.907Z" fill="#263238"/>
<path d="M503.872 313.386C512.17 313.386 518.897 303.768 518.897 291.903C518.897 280.038 512.17 270.42 503.872 270.42C495.574 270.42 488.847 280.038 488.847 291.903C488.847 303.768 495.574 313.386 503.872 313.386Z" fill="#9ABAE3"/>
<path d="M503.872 345.105C524.422 345.105 541.08 321.285 541.08 291.903C541.08 262.52 524.422 238.701 503.872 238.701C483.322 238.701 466.664 262.52 466.664 291.903C466.664 321.285 483.322 345.105 503.872 345.105Z" stroke="#263238" stroke-width="2.5" stroke-miterlimit="10" stroke-linecap="round" stroke-linejoin="round"/>
<path d="M481.751 164.165C481.751 164.165 523.528 175.154 530.28 181.494C537.032 187.834 545.049 225.027 545.049 225.027C545.049 225.027 568.258 253.767 568.258 263.066C568.258 272.364 568.258 307.867 568.258 307.867H373.3C373.3 307.867 368.473 236.016 322.476 236.016C276.479 236.016 276.665 307.867 276.665 307.867H149.646C149.646 307.867 145.702 230.21 103.649 236.016C67.7192 240.977 71.6825 299.776 71.6825 299.776H62.2946C62.2946 299.776 58.4965 244.047 88.88 218.688C88.88 218.688 92.2556 176.845 108.713 158.249C108.713 158.249 129.39 106.685 140.362 98.2323C151.334 89.7795 199.863 82.5944 236.998 82.5944C274.132 82.5944 378.785 84.7076 401.995 93.5836C425.205 102.46 481.751 164.165 481.751 164.165Z" fill="#9ABAE3"/>
<path d="M568.256 263.067C568.256 272.37 568.256 307.869 568.256 307.869H556.911V268.379C556.911 258.923 533.295 229.678 533.295 229.678C533.295 229.678 525.136 191.841 518.27 185.397C511.406 178.941 468.907 167.769 468.907 167.769C468.907 167.769 411.384 104.995 387.769 95.9588C364.153 86.9352 257.698 84.7872 219.92 84.7872C207.611 84.7872 194.072 85.5623 181.026 86.9098C198.69 84.2538 219.159 82.5884 237.001 82.5884C274.132 82.5884 378.785 84.7109 401.993 93.5827C425.203 102.454 481.749 164.16 481.749 164.16C481.749 164.16 523.523 175.154 530.274 181.497C537.026 187.839 545.045 225.028 545.045 225.028C545.045 225.028 568.256 253.763 568.256 263.067Z" fill="white"/>
<path d="M481.751 164.165C481.751 164.165 523.528 175.154 530.28 181.494C537.032 187.834 545.049 225.027 545.049 225.027C545.049 225.027 568.258 253.767 568.258 263.066C568.258 272.364 568.258 307.867 568.258 307.867H373.3C373.3 307.867 368.473 236.016 322.476 236.016C276.479 236.016 276.665 307.867 276.665 307.867H149.646C149.646 307.867 145.702 230.21 103.649 236.016C67.7192 240.977 71.6825 298.488 71.6825 298.488L62.2946 299.776C62.2946 299.776 58.4965 244.047 88.88 218.688C88.88 218.688 92.2556 176.845 108.713 158.249C108.713 158.249 129.39 106.685 140.362 98.2323C151.334 89.7795 199.863 82.5944 236.998 82.5944C274.132 82.5944 378.785 84.7076 401.995 93.5836C425.205 102.46 481.751 164.165 481.751 164.165Z" stroke="#263238" stroke-width="2.5" stroke-miterlimit="10" stroke-linecap="round" stroke-linejoin="round"/>
<path d="M276.766 313.386H152.427C150.268 313.386 148.519 311.634 148.519 309.472V301.716C148.519 299.554 150.268 297.802 152.427 297.802H276.765C278.924 297.802 280.673 299.554 280.673 301.716V309.472C280.674 311.634 278.924 313.386 276.766 313.386Z" fill="#9ABAE3" stroke="#263238" stroke-width="2.5" stroke-miterlimit="10" stroke-linecap="round" stroke-linejoin="round"/>
<path d="M568.681 313.386H374.674C372.516 313.386 370.767 311.634 370.767 309.472V301.716C370.767 299.554 372.516 297.802 374.674 297.802H568.681C570.839 297.802 572.588 299.554 572.588 301.716V309.472C572.587 311.634 570.838 313.386 568.681 313.386Z" fill="#9ABAE3" stroke="#263238" stroke-width="2.5" stroke-miterlimit="10" stroke-linecap="round" stroke-linejoin="round"/>
<path d="M67.7751 313.386H63.8771C61.7189 313.386 59.9697 311.634 59.9697 309.472V301.716C59.9697 299.554 61.7189 297.802 63.8771 297.802H67.7751C69.9333 297.802 71.6825 299.554 71.6825 301.716V309.472C71.6825 311.634 69.9333 313.386 67.7751 313.386Z" fill="#9ABAE3" stroke="#263238" stroke-width="2.5" stroke-miterlimit="10" stroke-linecap="round" stroke-linejoin="round"/>
<path d="M90.5411 221.936C90.9628 224.684 95.1826 232.08 95.1826 232.08" stroke="#263238" stroke-width="2.5" stroke-miterlimit="10" stroke-linecap="round" stroke-linejoin="round"/>
<path d="M274.317 281.953C274.317 281.953 277.06 221.937 319.048 221.937C365.045 221.937 374.75 280.424 374.75 280.424" stroke="#263238" stroke-width="2.5" stroke-miterlimit="10" stroke-linecap="round" stroke-linejoin="round"/>
<path d="M110.973 210.102C110.973 210.102 159.08 217.949 284.233 223.205" stroke="#263238" stroke-width="2.5" stroke-miterlimit="10" stroke-linecap="round" stroke-linejoin="round"/>
<path d="M321.58 171.218C321.58 171.218 364.412 171.852 374.75 173.331C385.089 174.81 406.821 184.108 416.949 197.422" stroke="#263238" stroke-width="2.5" stroke-miterlimit="10" stroke-linecap="round" stroke-linejoin="round"/>
<path d="M527.932 226.558C527.932 226.558 525.822 207.214 528.776 195.23C530.698 187.433 532.079 183.123 532.079 183.123C532.079 183.123 538.476 188.476 541.081 196.648C543.686 204.819 544.643 219.471 544.643 223.204C544.643 223.204 534.684 227.023 527.932 226.558Z" fill="white" stroke="#263238" stroke-width="2.5" stroke-miterlimit="10" stroke-linecap="round" stroke-linejoin="round"/>
<path d="M422.998 211.863H522.446C522.446 211.863 520.757 234.826 514.428 239.999C509.602 243.944 450.145 243.984 440.861 240.603C431.578 237.222 424.123 222.006 422.998 211.863Z" fill="#9ABAE3" stroke="#263238" stroke-width="2.5" stroke-miterlimit="10" stroke-linecap="round" stroke-linejoin="round"/>
<path d="M424.72 217.948H521.483" stroke="#263238" stroke-width="2.5" stroke-miterlimit="10" stroke-linecap="round" stroke-linejoin="round"/>
<path d="M426.593 224.288H520.753" stroke="#263238" stroke-width="2.5" stroke-miterlimit="10" stroke-linecap="round" stroke-linejoin="round"/>
<path d="M430.005 230.629H519.122" stroke="#263238" stroke-width="2.5" stroke-miterlimit="10" stroke-linecap="round" stroke-linejoin="round"/>
<path d="M435.195 236.968H516.775" stroke="#263238" stroke-width="2.5" stroke-miterlimit="10" stroke-linecap="round" stroke-linejoin="round"/>
<path d="M354.073 187.067C350.504 189.558 361.668 213.483 374.75 220.245C387.832 227.008 415.683 227.219 416.949 225.951C418.215 224.683 414.361 205.482 402.18 196.365C389.379 186.786 361.036 182.207 354.073 187.067Z" fill="white" stroke="#263238" stroke-width="2.5" stroke-miterlimit="10" stroke-linecap="round" stroke-linejoin="round"/>
<path d="M363.265 195.04C363.265 195.04 368.892 208.432 376.488 213.293C384.083 218.154 407.714 219.562 407.714 219.562" stroke="#263238" stroke-width="2.5" stroke-miterlimit="10" stroke-linecap="round" stroke-linejoin="round"/>
<path d="M412.448 276.811C412.448 276.811 548.328 276.811 550.86 276.811C553.392 276.811 548.206 291.904 544.644 291.904C541.082 291.904 427.218 291.904 421.733 291.904C416.245 291.903 410.056 276.811 412.448 276.811Z" fill="#263238" stroke="#263238" stroke-width="2.5" stroke-miterlimit="10" stroke-linecap="round" stroke-linejoin="round"/>
<path d="M392.614 263.99H560.284" stroke="#263238" stroke-width="2.5" stroke-miterlimit="10" stroke-linecap="round" stroke-linejoin="round"/>
<path d="M319.886 163.962H474.564C474.564 163.962 414.84 102.818 399.367 98.0287C383.894 93.2384 290.354 93.8023 284.235 95.2108C278.116 96.6194 276.147 100.564 277.272 104.228C278.396 107.89 315.801 163.962 319.886 163.962Z" fill="white" stroke="#263238" stroke-width="2.5" stroke-miterlimit="10" stroke-linecap="round" stroke-linejoin="round"/>
<path d="M425.082 133.245H362.247C356.085 133.245 351.881 139.488 354.189 145.211L361.758 163.968H443.34L433.139 138.687C431.812 135.398 428.624 133.245 425.082 133.245Z" fill="white" stroke="#263238" stroke-width="2.5" stroke-miterlimit="10" stroke-linecap="round" stroke-linejoin="round"/>
<path d="M384.18 163.968L373.979 138.687C372.651 135.398 369.464 133.245 365.921 133.245" stroke="#263238" stroke-width="2.5" stroke-miterlimit="10" stroke-linecap="round" stroke-linejoin="round"/>
<path d="M402.7 111.571H366.206C362.627 111.571 360.185 115.198 361.526 118.521L365.922 129.415H413.305L407.38 114.732C406.609 112.822 404.758 111.571 402.7 111.571Z" fill="#263238"/>
<path d="M378.945 129.415L373.02 114.732C372.249 112.821 370.397 111.57 368.34 111.57" stroke="#263238" stroke-width="2.5" stroke-miterlimit="10" stroke-linecap="round" stroke-linejoin="round"/>
<path d="M379.277 133.244H375.83L374.106 129.415H377.553L379.277 133.244Z" fill="white" stroke="#263238" stroke-width="2.5" stroke-miterlimit="10" stroke-linecap="round" stroke-linejoin="round"/>
<path d="M407.755 133.244H404.307L402.583 129.415H406.031L407.755 133.244Z" fill="white" stroke="#263238" stroke-width="2.5" stroke-miterlimit="10" stroke-linecap="round" stroke-linejoin="round"/>
<path d="M354.128 163.964H319.889C317.738 163.964 306.384 148.471 295.928 133.241H335.865C339.413 133.241 342.596 135.395 343.926 138.685L354.128 163.964Z" fill="#263238"/>
<path d="M324.088 129.417H293.32C289.959 124.464 286.784 119.673 284.168 115.62C283.491 114.585 282.847 113.593 282.254 112.66L282.246 112.652C282.017 112.287 281.789 111.922 281.569 111.575H313.488C315.545 111.575 317.4 112.821 318.17 114.729L324.088 129.417Z" fill="#263238"/>
<path d="M282.246 112.652L282.254 112.66C282.932 113.194 283.474 113.898 283.804 114.729L284.168 115.62" stroke="#263238" stroke-width="2.5" stroke-miterlimit="10" stroke-linecap="round" stroke-linejoin="round"/>
<path d="M318.542 133.244H315.094L313.37 129.415H316.818L318.542 133.244Z" fill="white" stroke="#263238" stroke-width="2.5" stroke-miterlimit="10" stroke-linecap="round" stroke-linejoin="round"/>
<path d="M311.769 153.882L337.009 128.603" stroke="#263238" stroke-width="2.5" stroke-miterlimit="10" stroke-linecap="round" stroke-linejoin="round"/>
<path d="M330.131 125.557L343.888 111.778" stroke="#263238" stroke-width="2.5" stroke-miterlimit="10" stroke-linecap="round" stroke-linejoin="round"/>
<path d="M426.592 138.909L436.883 128.603" stroke="#263238" stroke-width="2.5" stroke-miterlimit="10" stroke-linecap="round" stroke-linejoin="round"/>
<path d="M190.937 98.2458C179.758 132.123 174.085 160.486 174.085 160.486C155.558 159.698 128.678 158.986 128.31 158.605C127.181 157.486 139.008 129.868 144.35 121.137C149.693 112.405 152.917 105.564 165.303 101.903C168.196 101.039 186.662 98.5384 190.976 98.1322C190.976 98.1322 190.947 98.217 190.937 98.2458Z" fill="white" stroke="#263238" stroke-width="2.5" stroke-miterlimit="10" stroke-linecap="round" stroke-linejoin="round"/>
<path d="M296.072 163.968C274.017 163.968 225.047 162.507 188.234 161.058C188.348 160.232 192.79 126.957 202.789 97.5089C214.502 97.2163 226.937 97.8142 233.942 98.4493C246.327 99.5806 255.603 102.542 264.334 110.714C273.053 118.874 296.072 163.968 296.072 163.968Z" fill="white" stroke="#263238" stroke-width="2.5" stroke-miterlimit="10" stroke-linecap="round" stroke-linejoin="round"/>
<path d="M296.072 163.964H294.963C289.002 163.947 281.264 163.845 272.425 163.659C247.863 163.159 214.868 162.107 188.232 161.056C188.351 160.233 192.787 126.957 202.786 97.5064C214.504 97.2181 226.942 97.8117 233.944 98.4477C246.33 99.584 255.601 102.544 264.339 110.718C267.091 113.296 271.273 119.571 275.71 126.94C276.201 127.746 276.692 128.577 277.191 129.417C277.936 130.672 278.681 131.952 279.418 133.241C279.528 133.419 279.63 133.606 279.731 133.784C283.99 141.187 288.147 148.887 291.204 154.653C294.15 160.199 296.072 163.964 296.072 163.964Z" fill="white" stroke="#263238" stroke-width="2.5" stroke-miterlimit="10" stroke-linecap="round" stroke-linejoin="round"/>
<path d="M296.072 163.964H294.963C289.002 163.947 281.264 163.845 272.425 163.659L264.974 145.206C262.671 139.491 266.87 133.241 273.034 133.241H279.418C279.528 133.419 279.63 133.606 279.731 133.784C283.99 141.187 288.147 148.887 291.204 154.653C294.15 160.199 296.072 163.964 296.072 163.964Z" fill="#263238"/>
<path d="M294.963 163.964L291.204 154.653" stroke="#263238" stroke-width="2.5" stroke-miterlimit="10" stroke-linecap="round" stroke-linejoin="round"/>
<path d="M279.731 133.784C278.783 133.428 277.759 133.241 276.709 133.241" stroke="#263238" stroke-width="2.5" stroke-miterlimit="10" stroke-linecap="round" stroke-linejoin="round"/>
<path d="M289.509 171.218C289.509 171.218 289.298 207.003 289.509 221.936" stroke="#263238" stroke-width="2.5" stroke-miterlimit="10" stroke-linecap="round" stroke-linejoin="round"/>
<path d="M290.817 166.66L279.718 143.158C278.759 140.96 276.592 139.54 274.198 139.54H254.948C251.621 139.54 248.924 142.241 248.924 145.574V158.414H277.848L281.906 166.661" fill="#9ABAE3"/>
<path d="M290.817 166.66L279.718 143.158C278.759 140.96 276.592 139.54 274.198 139.54H254.948C251.621 139.54 248.924 142.241 248.924 145.574V158.414H277.848L281.906 166.661" stroke="#263238" stroke-width="2.5" stroke-miterlimit="10" stroke-linecap="round" stroke-linejoin="round"/>
<path d="M134.76 168.403C130.476 169.417 130.962 177.448 132.952 179.056C134.943 180.664 152.502 181.029 153.914 179.806C155.326 178.582 157.265 171.601 155.486 169.982C153.706 168.361 138.515 167.513 134.76 168.403Z" stroke="#263238" stroke-width="2.5" stroke-miterlimit="10" stroke-linecap="round" stroke-linejoin="round"/>
<path d="M131.847 171.576L156.194 172.729" stroke="#263238" stroke-width="2.5" stroke-miterlimit="10" stroke-linecap="round" stroke-linejoin="round"/>
<path d="M131.528 175.494L155.458 176.72" stroke="#263238" stroke-width="2.5" stroke-miterlimit="10" stroke-linecap="round" stroke-linejoin="round"/>
<path d="M191.624 171.326C187.322 172.261 187.661 180.3 189.621 181.944C191.582 183.589 209.132 184.276 210.565 183.079C212 181.882 214.066 174.937 212.316 173.285C210.567 171.633 195.394 170.506 191.624 171.326Z" stroke="#263238" stroke-width="2.5" stroke-miterlimit="10" stroke-linecap="round" stroke-linejoin="round"/>
<path d="M188.654 174.445L212.975 176.046" stroke="#263238" stroke-width="2.5" stroke-miterlimit="10" stroke-linecap="round" stroke-linejoin="round"/>
<path d="M188.263 178.358L212.167 180.023" stroke="#263238" stroke-width="2.5" stroke-miterlimit="10" stroke-linecap="round" stroke-linejoin="round"/>
<path d="M190.975 153.882L228.314 116.485" stroke="#263238" stroke-width="2.5" stroke-miterlimit="10" stroke-linecap="round" stroke-linejoin="round"/>
<path d="M228.396 129.309L242.153 115.53" stroke="#263238" stroke-width="2.5" stroke-miterlimit="10" stroke-linecap="round" stroke-linejoin="round"/>
<path d="M133.366 145.136L147.122 131.358" stroke="#263238" stroke-width="2.5" stroke-miterlimit="10" stroke-linecap="round" stroke-linejoin="round"/>
<path d="M482.666 171.629C482.666 171.629 516.486 183.093 518.27 185.397C520.054 187.701 524.406 197.422 524.406 197.422" stroke="#263238" stroke-width="2.5" stroke-miterlimit="10" stroke-linecap="round" stroke-linejoin="round"/>
<path d="M175.04 172.729C171.149 188.571 171.149 255.819 173.095 276.81" stroke="#263238" stroke-width="2.5" stroke-miterlimit="10" stroke-linecap="round" stroke-linejoin="round"/>
<path d="M437.045 163.958H347.485L347.398 163.914C349.577 158.618 353.158 139.382 360.231 129.791C367.348 120.146 376.329 120.892 380.12 121.155C383.927 121.417 392.104 121.611 396.227 121.864C400.341 122.119 409.55 121.04 413.865 122.311C420.063 124.135 424.947 128.528 425.665 134.069C426.366 139.619 425.193 155.847 425.193 155.847C425.193 155.847 434.848 154.164 436.196 154.225C437.553 154.295 437.553 154.549 437.553 154.549C436.896 156.997 436.809 160.61 437.045 163.958Z" fill="#9ABAE3"/>
<path d="M437.045 163.958H434.437C434.393 161.468 434.568 159.048 435.05 157.26C435.05 157.26 435.05 157.005 433.693 156.935C432.345 156.874 422.689 158.557 422.689 158.557C422.689 158.557 423.871 142.32 423.162 136.779C422.452 131.229 417.568 126.845 411.362 125.021C407.046 123.75 397.846 124.829 393.723 124.575C389.6 124.312 381.424 124.118 377.625 123.865C374.307 123.637 367.207 123.163 360.572 129.362C367.837 120.331 376.381 120.902 380.128 121.155C383.927 121.418 392.103 121.612 396.227 121.865C400.341 122.12 409.55 121.041 413.865 122.312C420.063 124.136 424.947 128.529 425.665 134.07C426.366 139.62 425.193 155.848 425.193 155.848C425.193 155.848 434.848 154.165 436.196 154.226C437.553 154.296 437.553 154.55 437.553 154.55C436.896 156.997 436.809 160.609 437.045 163.958Z" fill="white"/>
<path d="M437.045 163.958H347.485L347.398 163.914C349.577 158.618 353.158 139.382 360.231 129.791C367.348 120.146 376.329 120.892 380.12 121.155C383.927 121.417 392.104 121.611 396.227 121.864C400.341 122.119 409.55 121.04 413.865 122.311C420.063 124.135 424.947 128.528 425.665 134.069C426.366 139.619 425.193 155.847 425.193 155.847C425.193 155.847 434.848 154.164 436.196 154.225C437.553 154.295 437.553 154.549 437.553 154.549C436.896 156.997 436.809 160.61 437.045 163.958Z" stroke="#263238" stroke-width="2.5" stroke-miterlimit="10" stroke-linecap="round" stroke-linejoin="round"/>
<path d="M381.309 144.685C380.844 146.849 380.193 149.237 379.319 151.867" stroke="#263238" stroke-width="2.5" stroke-miterlimit="10" stroke-linecap="round" stroke-linejoin="round"/>
<path d="M377.081 123.838C378.498 124.854 383.939 127.752 382.011 140.688" stroke="#263238" stroke-width="2.5" stroke-miterlimit="10" stroke-linecap="round" stroke-linejoin="round"/>
<path d="M367.809 155.476C367.809 155.476 390.917 148.512 398.632 148.254" stroke="#263238" stroke-width="2.5" stroke-miterlimit="10" stroke-linecap="round" stroke-linejoin="round"/>
<path d="M368.925 152.81L373.641 153.786" stroke="#263238" stroke-width="2.5" stroke-miterlimit="10" stroke-linecap="round" stroke-linejoin="round"/>
<path d="M398.632 124.468C398.632 124.468 402.047 128.393 399.669 129.213C395.942 130.5 389.906 125.08 389.906 125.08L398.632 124.468Z" fill="#263238"/>
<path d="M384.379 117.596C382.139 111.329 384.595 104.717 389.867 102.827C395.137 100.937 401.226 104.485 403.466 110.753C405.706 117.02 403.248 123.632 397.978 125.523C392.707 127.413 386.618 123.864 384.379 117.596Z" fill="#915A3F"/>
<path d="M397.977 125.523C396.505 126.049 394.967 126.154 393.469 125.887C394.206 125.836 394.936 125.685 395.654 125.43C400.65 123.637 402.978 117.369 400.856 111.425C398.73 105.482 392.959 102.12 387.963 103.91C387.838 103.957 387.708 104.004 387.587 104.058C388.271 103.542 389.034 103.124 389.866 102.828C395.135 100.94 401.224 104.488 403.464 110.755C405.706 117.021 403.25 123.632 397.977 125.523Z" fill="white"/>
<path d="M384.379 117.596C382.139 111.329 384.595 104.717 389.867 102.827C395.137 100.937 401.226 104.485 403.466 110.753C405.706 117.02 403.248 123.632 397.978 125.523C392.707 127.413 386.618 123.864 384.379 117.596Z" stroke="#263238" stroke-width="2.5" stroke-miterlimit="10" stroke-linecap="round" stroke-linejoin="round"/>
<path d="M401.381 101.887C401.731 104.288 400.067 106.514 397.678 106.863C396.67 107.01 395.697 106.801 394.881 106.335C394.318 109.969 390.175 117.916 384.812 118.668C384.812 118.668 379.752 109.119 388.086 103.463C389.812 102.292 391.324 101.553 392.818 101.374C393.258 99.7401 394.628 98.4392 396.415 98.1789C398.802 97.8287 401.032 99.4865 401.381 101.887Z" fill="#263238"/>
<path d="M398.851 104.304C398.851 104.304 402.297 106.756 403.521 110.344C403.521 110.344 404.881 102.442 398.851 104.304Z" fill="#263238"/>
<path d="M414.503 140.688L412.7 153.786" stroke="#263238" stroke-width="2.5" stroke-miterlimit="10" stroke-linecap="round" stroke-linejoin="round"/>
<path d="M446.56 163.958H435.049C434.944 163.59 434.848 163.222 434.769 162.853C434.077 159.794 435.6 156.874 437.509 155.024C438.796 153.787 440.511 151.841 445.273 151.867L446.56 163.958Z" fill="#915A3F" stroke="#263238" stroke-width="2.5" stroke-miterlimit="10" stroke-linecap="round" stroke-linejoin="round"/>
<path d="M451.165 163.897C449.441 151.649 438.139 141.715 425.902 141.715C413.681 141.715 405.155 151.649 406.88 163.897C406.88 163.915 406.888 163.941 406.888 163.958H413.733C413.733 163.94 413.725 163.914 413.725 163.897C412.543 155.437 418.426 148.58 426.864 148.58C435.311 148.58 443.12 155.436 444.311 163.897C444.311 163.915 444.319 163.941 444.319 163.958H451.174C451.174 163.94 451.165 163.914 451.165 163.897Z" fill="white" stroke="#263238" stroke-width="2.5" stroke-miterlimit="10" stroke-linecap="round" stroke-linejoin="round"/>
<path d="M423.695 160.697C423.695 160.697 423.564 162.784 422.277 163.958H397.723C397.382 162.853 397.119 161.608 396.97 160.232C396.323 154.332 399.36 148.685 399.36 148.685C399.36 148.685 408.14 144.38 412.57 143.942C417 143.504 421.245 146.397 422.76 148.676C425.105 152.21 428.239 159.232 423.695 160.697Z" fill="#915A3F" stroke="#263238" stroke-width="2.5" stroke-miterlimit="10" stroke-linecap="round" stroke-linejoin="round"/>
<path d="M419.558 163.958C419.784 161.733 419.124 160.069 417.413 157.562" stroke="#263238" stroke-width="2.5" stroke-miterlimit="10" stroke-linecap="round" stroke-linejoin="round"/>
<path d="M423.678 161.016C423.905 158.79 422.846 156.347 421.135 153.84" stroke="#263238" stroke-width="2.5" stroke-miterlimit="10" stroke-linecap="round" stroke-linejoin="round"/>
<path d="M445.626 156.238C448.256 156.377 454.312 156.419 455.648 155.393C456.986 154.366 456.626 150.394 454.015 149.788C451.404 149.182 446.032 150.819 444.302 152.112C442.572 153.406 442.931 156.096 445.626 156.238Z" fill="#915A3F" stroke="#263238" stroke-width="2.5" stroke-miterlimit="10" stroke-linecap="round" stroke-linejoin="round"/>
<path d="M446.725 161.443C449.462 162.344 455.842 164.124 457.548 163.423C459.254 162.723 460.009 158.427 457.426 157.038C454.842 155.65 448.702 155.839 446.506 156.708C444.311 157.577 443.92 160.52 446.725 161.443Z" fill="#915A3F" stroke="#263238" stroke-width="2.5" stroke-miterlimit="10" stroke-linecap="round" stroke-linejoin="round"/>
<path d="M444.594 154.692C446.543 154.588 448.853 153.354 448.233 151.122" stroke="#263238" stroke-width="2.5" stroke-miterlimit="10" stroke-linecap="round" stroke-linejoin="round"/>
<path d="M411.877 106.411C411.877 106.411 407.962 126.695 401.98 134.901C398.065 140.27 385.157 150.819 385.157 150.819L390.989 149.402C390.989 149.402 399.609 144.799 405.428 135.493C411.247 126.187 414.441 108.401 414.441 108.401L411.877 106.411Z" fill="#263238" stroke="#263238" stroke-width="2.5" stroke-miterlimit="10" stroke-linecap="round" stroke-linejoin="round"/>
<path d="M16.1226 346.589H577.546" stroke="#263238" stroke-width="2.5" stroke-miterlimit="10" stroke-linecap="round" stroke-linejoin="round"/>
</svg>
